/* XPM */
static char *neosurf_16x16[] = {
/* columns rows colors chars-per-pixel */
"16 16 137 2 ",
"   c None",
".  c #000000",
"X  c #020100",
"o  c #030200",
"O  c #0A0400",
"+  c #0A0500",
"@  c #0A0600",
"#  c #0E0700",
"$  c #0E0A00",
"%  c #1F1300",
"&  c #210F00",
"*  c #220F00",
"=  c #221700",
"-  c #291300",
";  c #3F2000",
":  c #441F00",
">  c #452000",
",  c #452600",
"<  c #452B00",
"1  c #462D00",
"2  c #4E2D00",
"3  c #592900",
"4  c #5F2B00",
"5  c #4A3000",
"6  c #553100",
"7  c #5F3400",
"8  c #5F3600",
"9  c #5F3700",
"0  c #5F3900",
"q  c #632E00",
"w  c #713400",
"e  c #7F3A00",
"r  c #604C00",
"t  c #6C4800",
"y  c #744D00",
"u  c #7F5D00",
"i  c #833B00",
"p  c #803F00",
"a  c #934D00",
"s  c #964E00",
"d  c #9A4A00",
"f  c #9A4D00",
"g  c #805500",
"h  c #8C5500",
"j  c #9E5300",
"k  c #945B00",
"l  c #A64E00",
"z  c #A85100",
"x  c #B75300",
"c  c #B25600",
"v  c #BC6400",
"b  c #C75B00",
"n  c #C55D00",
"m  c #C75E00",
"M  c #CE5D00",
"N  c #CF5E00",
"B  c #CF6000",
"V  c #CC7700",
"C  c #DF7A00",
"Z  c #E46800",
"A  c #E66800",
"S  c #E36E00",
"D  c #EA6A00",
"F  c #EB6B00",
"G  c #EC6B00",
"H  c #F06C00",
"J  c #E47E00",
"K  c #EC7C00",
"L  c #F97000",
"P  c #FC7200",
"I  c #FF7300",
"U  c #FF7400",
"Y  c #FD7700",
"T  c #FF7700",
"R  c #F77D00",
"E  c #FF7900",
"W  c #FF7D00",
"Q  c #B98900",
"!  c #CF8500",
"~  c #CF8E00",
"^  c #C79D00",
"/  c #DC9300",
"(  c #F18000",
")  c #FF8000",
"_  c #FF8200",
"`  c #FF8500",
"'  c #FF8700",
"]  c #FF8900",
"[  c #FF8C00",
"{  c #FF8D00",
"}  c #FF8E00",
"|  c #FF8F00",
" . c #E59900",
".. c #EC9B00",
"X. c #FF9000",
"o. c #FF9100",
"O. c #FF9200",
"+. c #FF9500",
"@. c #FF9600",
"#. c #FF9700",
"$. c #FF9800",
"%. c #FF9A00",
"&. c #FF9B00",
"*. c #FC9D00",
"=. c #FF9C00",
"-. c #FF9E00",
";. c #FF9F00",
":. c #F6A500",
">. c #FFA000",
",. c #FFA100",
"<. c #FFA200",
"1. c #FFA400",
"2. c #FEA500",
"3. c #FFA600",
"4. c #FEA700",
"5. c #FFA700",
"6. c #FFA800",
"7. c #FFAB00",
"8. c #FFAE00",
"9. c #FFAF00",
"0. c #FFB000",
"q. c #FEB100",
"w. c #FFB100",
"e. c #FFB200",
"r. c #FFB500",
"t. c #FFB600",
"y. c #FFB800",
"u. c #FFB900",
"i. c #FCBB00",
"p. c #FFBB00",
"a. c #FFBC00",
"s. c #FFBE00",
"d. c #FFC000",
"f. c #FFC100",
"g. c #FFC200",
"h. c #FFC800",
"j. c #FFCB00",
/* pixels */
"          o % 0 9 , @           ",
"      $ g y ! -.@.| K e #       ",
"    = ~ q.q.8.5.-.@.C _ B &     ",
"  $ ~ t.Q y.y.8.5.h 2 a m N #   ",
"  g q.a.r j.d.t./ 1 o o z P e   ",
"@ ..q.a.^ j.d.t. .5 o o c P F @ ",
"< 5.8.y.d.d.a.q.5.k 6 j m I I : ",
"0 -.7.q.u t.q.7.>.@.J _ T I I 4 ",
"9 $.>.5.t :.5.>.$.X.` W T I I - ",
", | @.$.-.-.-.$.X.] _ T N x I : ",
"@ K | X.X.V X.| ] R E A i H F @ ",
"  ; s ` ( 9 v _ f q F I I I e   ",
"  @ l E S d m T T I I I I N #   ",
"    & N I I I A I I I I N &     ",
"      # e F I w b I F e #       ",
"          @ : 3 - : @           "
};
